<mxfile host="app.diagrams.net" agent="Mozilla/5.0 (Macintosh; Intel Mac OS X 10_15_7) AppleWebKit/537.36 (KHTML, like Gecko) Chrome/138.0.0.0 Safari/537.36" version="28.0.7">
  <diagram name="ページ1" id="Ym4KjbKJ4GQoPpbtyPmO">
    <mxGraphModel dx="1323" dy="809" grid="1" gridSize="10" guides="1" tooltips="1" connect="1" arrows="1" fold="1" page="1" pageScale="1" pageWidth="827" pageHeight="1169" math="0" shadow="0">
      <root>
        <mxCell id="0" />
        <mxCell id="1" parent="0" />
        <mxCell id="ekF96qy5NfuyMTF11US6-1" value="Registration" style="swimlane;childLayout=stackLayout;resizeParent=1;resizeParentMax=0;startSize=20;html=1;rounded=1;" vertex="1" parent="1">
          <mxGeometry x="90" y="60" width="700" height="1720" as="geometry" />
        </mxCell>
        <mxCell id="ekF96qy5NfuyMTF11US6-2" value="User" style="swimlane;startSize=20;html=1;rounded=1;" vertex="1" parent="ekF96qy5NfuyMTF11US6-1">
          <mxGeometry y="20" width="190" height="1700" as="geometry" />
        </mxCell>
        <mxCell id="ekF96qy5NfuyMTF11US6-73" value="Yes" style="edgeStyle=orthogonalEdgeStyle;rounded=1;orthogonalLoop=1;jettySize=auto;html=1;exitX=0;exitY=0.5;exitDx=0;exitDy=0;entryX=0;entryY=0.5;entryDx=0;entryDy=0;" edge="1" parent="ekF96qy5NfuyMTF11US6-2" source="ekF96qy5NfuyMTF11US6-66" target="ekF96qy5NfuyMTF11US6-34">
          <mxGeometry relative="1" as="geometry">
            <Array as="points">
              <mxPoint x="20" y="640" />
              <mxPoint x="20" y="160" />
            </Array>
          </mxGeometry>
        </mxCell>
        <mxCell id="ekF96qy5NfuyMTF11US6-34" value="登録したいマテリアルの種類を選択" style="whiteSpace=wrap;html=1;rounded=1;" vertex="1" parent="ekF96qy5NfuyMTF11US6-2">
          <mxGeometry x="35" y="130" width="120" height="60" as="geometry" />
        </mxCell>
        <mxCell id="ekF96qy5NfuyMTF11US6-10" value="登録したいマテリアルを入力" style="whiteSpace=wrap;html=1;rounded=1;" vertex="1" parent="ekF96qy5NfuyMTF11US6-2">
          <mxGeometry x="35" y="390" width="120" height="60" as="geometry" />
        </mxCell>
        <mxCell id="ekF96qy5NfuyMTF11US6-86" style="edgeStyle=orthogonalEdgeStyle;rounded=1;orthogonalLoop=1;jettySize=auto;html=1;exitX=0.5;exitY=1;exitDx=0;exitDy=0;" edge="1" parent="ekF96qy5NfuyMTF11US6-2" source="ekF96qy5NfuyMTF11US6-66" target="ekF96qy5NfuyMTF11US6-84">
          <mxGeometry relative="1" as="geometry" />
        </mxCell>
        <mxCell id="ekF96qy5NfuyMTF11US6-66" value="登録するマテリアルを変更する？" style="rhombus;whiteSpace=wrap;html=1;rounded=1;" vertex="1" parent="ekF96qy5NfuyMTF11US6-2">
          <mxGeometry x="55" y="600" width="80" height="80" as="geometry" />
        </mxCell>
        <mxCell id="ekF96qy5NfuyMTF11US6-79" value="登録画面を開く" style="ellipse;whiteSpace=wrap;html=1;rounded=1;" vertex="1" parent="ekF96qy5NfuyMTF11US6-2">
          <mxGeometry x="55" y="30" width="80" height="80" as="geometry" />
        </mxCell>
        <mxCell id="ekF96qy5NfuyMTF11US6-84" value="登録終了" style="ellipse;whiteSpace=wrap;html=1;rounded=1;" vertex="1" parent="ekF96qy5NfuyMTF11US6-2">
          <mxGeometry x="55" y="740" width="80" height="80" as="geometry" />
        </mxCell>
        <mxCell id="ekF96qy5NfuyMTF11US6-108" style="edgeStyle=orthogonalEdgeStyle;rounded=1;orthogonalLoop=1;jettySize=auto;html=1;exitX=0;exitY=0.5;exitDx=0;exitDy=0;entryX=0;entryY=0.5;entryDx=0;entryDy=0;" edge="1" parent="ekF96qy5NfuyMTF11US6-2" source="ekF96qy5NfuyMTF11US6-13" target="ekF96qy5NfuyMTF11US6-25">
          <mxGeometry relative="1" as="geometry">
            <Array as="points">
              <mxPoint x="20" y="890" />
              <mxPoint x="20" y="1105" />
            </Array>
          </mxGeometry>
        </mxCell>
        <mxCell id="ekF96qy5NfuyMTF11US6-109" value="Yes" style="edgeLabel;html=1;align=center;verticalAlign=middle;resizable=0;points=[];rounded=1;" vertex="1" connectable="0" parent="ekF96qy5NfuyMTF11US6-108">
          <mxGeometry x="-0.4102" y="-4" relative="1" as="geometry">
            <mxPoint as="offset" />
          </mxGeometry>
        </mxCell>
        <mxCell id="ekF96qy5NfuyMTF11US6-13" value="詳細を自身で入力する？" style="rhombus;whiteSpace=wrap;html=1;rounded=1;" vertex="1" parent="ekF96qy5NfuyMTF11US6-2">
          <mxGeometry x="55" y="850" width="80" height="80" as="geometry" />
        </mxCell>
        <mxCell id="ekF96qy5NfuyMTF11US6-15" value="自動取得ボタンを押下" style="whiteSpace=wrap;html=1;rounded=1;" vertex="1" parent="ekF96qy5NfuyMTF11US6-2">
          <mxGeometry x="35" y="970" width="120" height="60" as="geometry" />
        </mxCell>
        <mxCell id="ekF96qy5NfuyMTF11US6-92" style="edgeStyle=orthogonalEdgeStyle;rounded=1;orthogonalLoop=1;jettySize=auto;html=1;exitX=0.5;exitY=1;exitDx=0;exitDy=0;entryX=0.5;entryY=0;entryDx=0;entryDy=0;" edge="1" parent="ekF96qy5NfuyMTF11US6-2" source="ekF96qy5NfuyMTF11US6-25" target="ekF96qy5NfuyMTF11US6-28">
          <mxGeometry relative="1" as="geometry" />
        </mxCell>
        <mxCell id="ekF96qy5NfuyMTF11US6-25" value="詳細情報を入力" style="whiteSpace=wrap;html=1;rounded=1;" vertex="1" parent="ekF96qy5NfuyMTF11US6-2">
          <mxGeometry x="35" y="1075" width="120" height="60" as="geometry" />
        </mxCell>
        <mxCell id="ekF96qy5NfuyMTF11US6-28" value="登録ボタンを押下" style="whiteSpace=wrap;html=1;rounded=1;" vertex="1" parent="ekF96qy5NfuyMTF11US6-2">
          <mxGeometry x="35" y="1170" width="120" height="60" as="geometry" />
        </mxCell>
        <mxCell id="ekF96qy5NfuyMTF11US6-16" value="No" style="edgeStyle=orthogonalEdgeStyle;rounded=1;orthogonalLoop=1;jettySize=auto;html=1;" edge="1" parent="ekF96qy5NfuyMTF11US6-2" source="ekF96qy5NfuyMTF11US6-13" target="ekF96qy5NfuyMTF11US6-15">
          <mxGeometry relative="1" as="geometry" />
        </mxCell>
        <mxCell id="ekF96qy5NfuyMTF11US6-3" value="App" style="swimlane;startSize=20;html=1;rounded=1;" vertex="1" parent="ekF96qy5NfuyMTF11US6-1">
          <mxGeometry x="190" y="20" width="180" height="1700" as="geometry" />
        </mxCell>
        <mxCell id="ekF96qy5NfuyMTF11US6-8" value="登録画面を表示" style="whiteSpace=wrap;html=1;rounded=1;" vertex="1" parent="ekF96qy5NfuyMTF11US6-3">
          <mxGeometry x="20" y="40" width="120" height="60" as="geometry" />
        </mxCell>
        <mxCell id="ekF96qy5NfuyMTF11US6-46" style="edgeStyle=orthogonalEdgeStyle;rounded=1;orthogonalLoop=1;jettySize=auto;html=1;exitX=0.5;exitY=1;exitDx=0;exitDy=0;" edge="1" parent="ekF96qy5NfuyMTF11US6-3" source="ekF96qy5NfuyMTF11US6-42" target="ekF96qy5NfuyMTF11US6-45">
          <mxGeometry relative="1" as="geometry" />
        </mxCell>
        <mxCell id="ekF96qy5NfuyMTF11US6-49" value="Yes" style="edgeLabel;html=1;align=center;verticalAlign=middle;resizable=0;points=[];rounded=1;" vertex="1" connectable="0" parent="ekF96qy5NfuyMTF11US6-46">
          <mxGeometry x="0.36" relative="1" as="geometry">
            <mxPoint as="offset" />
          </mxGeometry>
        </mxCell>
        <mxCell id="ekF96qy5NfuyMTF11US6-52" value="No" style="edgeStyle=orthogonalEdgeStyle;rounded=1;orthogonalLoop=1;jettySize=auto;html=1;exitX=1;exitY=0.5;exitDx=0;exitDy=0;entryX=1;entryY=0.5;entryDx=0;entryDy=0;" edge="1" parent="ekF96qy5NfuyMTF11US6-3" source="ekF96qy5NfuyMTF11US6-42" target="ekF96qy5NfuyMTF11US6-47">
          <mxGeometry relative="1" as="geometry" />
        </mxCell>
        <mxCell id="ekF96qy5NfuyMTF11US6-42" value="「語彙」が選択された" style="rhombus;whiteSpace=wrap;html=1;rounded=1;" vertex="1" parent="ekF96qy5NfuyMTF11US6-3">
          <mxGeometry x="40" y="190" width="80" height="80" as="geometry" />
        </mxCell>
        <mxCell id="ekF96qy5NfuyMTF11US6-45" value="語彙登録用のデザインを表示" style="whiteSpace=wrap;html=1;rounded=1;" vertex="1" parent="ekF96qy5NfuyMTF11US6-3">
          <mxGeometry x="20" y="300" width="120" height="60" as="geometry" />
        </mxCell>
        <mxCell id="ekF96qy5NfuyMTF11US6-47" value="フレーズ登録用のデザインを表示" style="whiteSpace=wrap;html=1;rounded=1;" vertex="1" parent="ekF96qy5NfuyMTF11US6-3">
          <mxGeometry x="20" y="390" width="120" height="60" as="geometry" />
        </mxCell>
        <mxCell id="ekF96qy5NfuyMTF11US6-58" value="&amp;nbsp;登録するマテリアうがDBに存在しているか判断" style="whiteSpace=wrap;html=1;rounded=1;" vertex="1" parent="ekF96qy5NfuyMTF11US6-3">
          <mxGeometry x="20" y="500" width="120" height="60" as="geometry" />
        </mxCell>
        <mxCell id="ekF96qy5NfuyMTF11US6-70" style="edgeStyle=orthogonalEdgeStyle;rounded=1;orthogonalLoop=1;jettySize=auto;html=1;exitX=0.5;exitY=1;exitDx=0;exitDy=0;entryX=0.5;entryY=0;entryDx=0;entryDy=0;" edge="1" parent="ekF96qy5NfuyMTF11US6-3" source="ekF96qy5NfuyMTF11US6-62" target="ekF96qy5NfuyMTF11US6-64">
          <mxGeometry relative="1" as="geometry" />
        </mxCell>
        <mxCell id="ekF96qy5NfuyMTF11US6-83" value="Yes" style="edgeLabel;html=1;align=center;verticalAlign=middle;resizable=0;points=[];rounded=1;" vertex="1" connectable="0" parent="ekF96qy5NfuyMTF11US6-70">
          <mxGeometry x="-0.2357" y="-3" relative="1" as="geometry">
            <mxPoint as="offset" />
          </mxGeometry>
        </mxCell>
        <mxCell id="ekF96qy5NfuyMTF11US6-62" value="マテリアルがDB内に存在する" style="rhombus;whiteSpace=wrap;html=1;rounded=1;" vertex="1" parent="ekF96qy5NfuyMTF11US6-3">
          <mxGeometry x="40" y="600" width="80" height="80" as="geometry" />
        </mxCell>
        <mxCell id="ekF96qy5NfuyMTF11US6-64" value="ユーザーが詳細を入力できないようにページデザインを変更し編集画面への遷移ボタンを表示" style="whiteSpace=wrap;html=1;rounded=1;" vertex="1" parent="ekF96qy5NfuyMTF11US6-3">
          <mxGeometry x="20" y="720" width="120" height="80" as="geometry" />
        </mxCell>
        <mxCell id="ekF96qy5NfuyMTF11US6-104" value="No" style="edgeStyle=orthogonalEdgeStyle;rounded=1;orthogonalLoop=1;jettySize=auto;html=1;exitX=0;exitY=0.5;exitDx=0;exitDy=0;entryX=0;entryY=0.5;entryDx=0;entryDy=0;" edge="1" parent="ekF96qy5NfuyMTF11US6-3" source="ekF96qy5NfuyMTF11US6-95" target="ekF96qy5NfuyMTF11US6-103">
          <mxGeometry relative="1" as="geometry" />
        </mxCell>
        <mxCell id="ekF96qy5NfuyMTF11US6-106" value="Yes" style="edgeStyle=orthogonalEdgeStyle;rounded=1;orthogonalLoop=1;jettySize=auto;html=1;exitX=0.5;exitY=1;exitDx=0;exitDy=0;" edge="1" parent="ekF96qy5NfuyMTF11US6-3" source="ekF96qy5NfuyMTF11US6-95" target="ekF96qy5NfuyMTF11US6-99">
          <mxGeometry relative="1" as="geometry" />
        </mxCell>
        <mxCell id="ekF96qy5NfuyMTF11US6-95" value="登録に成功したか？" style="rhombus;whiteSpace=wrap;html=1;rounded=1;" vertex="1" parent="ekF96qy5NfuyMTF11US6-3">
          <mxGeometry x="50" y="1350" width="80" height="80" as="geometry" />
        </mxCell>
        <mxCell id="ekF96qy5NfuyMTF11US6-99" value="「登録完了」というメッセージを表示" style="ellipse;whiteSpace=wrap;html=1;rounded=1;" vertex="1" parent="ekF96qy5NfuyMTF11US6-3">
          <mxGeometry x="50" y="1470" width="80" height="80" as="geometry" />
        </mxCell>
        <mxCell id="ekF96qy5NfuyMTF11US6-103" value="「登録失敗」というメッセージを表示" style="ellipse;whiteSpace=wrap;html=1;rounded=1;" vertex="1" parent="ekF96qy5NfuyMTF11US6-3">
          <mxGeometry x="50" y="1584" width="80" height="80" as="geometry" />
        </mxCell>
        <mxCell id="ekF96qy5NfuyMTF11US6-23" value="受け取った情報を入力欄に入力する" style="whiteSpace=wrap;html=1;rounded=1;" vertex="1" parent="ekF96qy5NfuyMTF11US6-3">
          <mxGeometry x="30" y="1170" width="120" height="60" as="geometry" />
        </mxCell>
        <mxCell id="ekF96qy5NfuyMTF11US6-30" value="入力された情報をDBに保存する" style="whiteSpace=wrap;html=1;rounded=1;" vertex="1" parent="ekF96qy5NfuyMTF11US6-3">
          <mxGeometry x="30" y="1270" width="120" height="60" as="geometry" />
        </mxCell>
        <mxCell id="ekF96qy5NfuyMTF11US6-4" value="AI" style="swimlane;startSize=20;html=1;rounded=1;" vertex="1" parent="ekF96qy5NfuyMTF11US6-1">
          <mxGeometry x="370" y="20" width="150" height="1700" as="geometry" />
        </mxCell>
        <mxCell id="ekF96qy5NfuyMTF11US6-19" value="クエリを受け取りJSON形式で詳細情報を出力する" style="whiteSpace=wrap;html=1;rounded=1;" vertex="1" parent="ekF96qy5NfuyMTF11US6-4">
          <mxGeometry x="15" y="1080" width="120" height="60" as="geometry" />
        </mxCell>
        <mxCell id="ekF96qy5NfuyMTF11US6-35" style="edgeStyle=orthogonalEdgeStyle;rounded=1;orthogonalLoop=1;jettySize=auto;html=1;exitX=0.5;exitY=1;exitDx=0;exitDy=0;entryX=1;entryY=0.5;entryDx=0;entryDy=0;" edge="1" parent="ekF96qy5NfuyMTF11US6-1" source="ekF96qy5NfuyMTF11US6-8" target="ekF96qy5NfuyMTF11US6-34">
          <mxGeometry relative="1" as="geometry" />
        </mxCell>
        <mxCell id="ekF96qy5NfuyMTF11US6-43" style="edgeStyle=orthogonalEdgeStyle;rounded=1;orthogonalLoop=1;jettySize=auto;html=1;exitX=0.5;exitY=1;exitDx=0;exitDy=0;entryX=0;entryY=0.5;entryDx=0;entryDy=0;" edge="1" parent="ekF96qy5NfuyMTF11US6-1" source="ekF96qy5NfuyMTF11US6-34" target="ekF96qy5NfuyMTF11US6-42">
          <mxGeometry relative="1" as="geometry" />
        </mxCell>
        <mxCell id="ekF96qy5NfuyMTF11US6-53" style="edgeStyle=orthogonalEdgeStyle;rounded=1;orthogonalLoop=1;jettySize=auto;html=1;exitX=0;exitY=0.5;exitDx=0;exitDy=0;" edge="1" parent="ekF96qy5NfuyMTF11US6-1" source="ekF96qy5NfuyMTF11US6-45" target="ekF96qy5NfuyMTF11US6-10">
          <mxGeometry relative="1" as="geometry" />
        </mxCell>
        <mxCell id="ekF96qy5NfuyMTF11US6-60" style="edgeStyle=orthogonalEdgeStyle;rounded=1;orthogonalLoop=1;jettySize=auto;html=1;exitX=1;exitY=0.5;exitDx=0;exitDy=0;entryX=0;entryY=0.5;entryDx=0;entryDy=0;" edge="1" parent="ekF96qy5NfuyMTF11US6-1" source="ekF96qy5NfuyMTF11US6-58" target="ekF96qy5NfuyMTF11US6-59">
          <mxGeometry relative="1" as="geometry" />
        </mxCell>
        <mxCell id="ekF96qy5NfuyMTF11US6-5" value="DB" style="swimlane;startSize=20;whiteSpace=wrap;html=1;rounded=1;" vertex="1" parent="ekF96qy5NfuyMTF11US6-1">
          <mxGeometry x="520" y="20" width="180" height="1700" as="geometry" />
        </mxCell>
        <mxCell id="ekF96qy5NfuyMTF11US6-59" value="DB内を検索" style="whiteSpace=wrap;html=1;rounded=1;" vertex="1" parent="ekF96qy5NfuyMTF11US6-5">
          <mxGeometry x="30" y="500" width="120" height="60" as="geometry" />
        </mxCell>
        <mxCell id="ekF96qy5NfuyMTF11US6-93" value="マテリアルを新規登録" style="whiteSpace=wrap;html=1;rounded=1;" vertex="1" parent="ekF96qy5NfuyMTF11US6-5">
          <mxGeometry x="30" y="1270" width="120" height="60" as="geometry" />
        </mxCell>
        <mxCell id="ekF96qy5NfuyMTF11US6-67" style="edgeStyle=orthogonalEdgeStyle;rounded=1;orthogonalLoop=1;jettySize=auto;html=1;exitX=0;exitY=0.5;exitDx=0;exitDy=0;" edge="1" parent="ekF96qy5NfuyMTF11US6-1" source="ekF96qy5NfuyMTF11US6-64" target="ekF96qy5NfuyMTF11US6-66">
          <mxGeometry relative="1" as="geometry">
            <Array as="points">
              <mxPoint x="170" y="780" />
              <mxPoint x="170" y="660" />
            </Array>
          </mxGeometry>
        </mxCell>
        <mxCell id="ekF96qy5NfuyMTF11US6-68" style="edgeStyle=orthogonalEdgeStyle;rounded=1;orthogonalLoop=1;jettySize=auto;html=1;exitX=0;exitY=0.5;exitDx=0;exitDy=0;" edge="1" parent="ekF96qy5NfuyMTF11US6-1" source="ekF96qy5NfuyMTF11US6-47" target="ekF96qy5NfuyMTF11US6-10">
          <mxGeometry relative="1" as="geometry" />
        </mxCell>
        <mxCell id="ekF96qy5NfuyMTF11US6-69" style="edgeStyle=orthogonalEdgeStyle;rounded=1;orthogonalLoop=1;jettySize=auto;html=1;exitX=0.5;exitY=1;exitDx=0;exitDy=0;entryX=0;entryY=0.5;entryDx=0;entryDy=0;" edge="1" parent="ekF96qy5NfuyMTF11US6-1" source="ekF96qy5NfuyMTF11US6-10" target="ekF96qy5NfuyMTF11US6-58">
          <mxGeometry relative="1" as="geometry" />
        </mxCell>
        <mxCell id="ekF96qy5NfuyMTF11US6-72" style="edgeStyle=orthogonalEdgeStyle;rounded=1;orthogonalLoop=1;jettySize=auto;html=1;exitX=0.5;exitY=1;exitDx=0;exitDy=0;entryX=0.5;entryY=0;entryDx=0;entryDy=0;" edge="1" parent="ekF96qy5NfuyMTF11US6-1" source="ekF96qy5NfuyMTF11US6-59" target="ekF96qy5NfuyMTF11US6-62">
          <mxGeometry relative="1" as="geometry" />
        </mxCell>
        <mxCell id="ekF96qy5NfuyMTF11US6-80" value="" style="edgeStyle=orthogonalEdgeStyle;rounded=1;orthogonalLoop=1;jettySize=auto;html=1;" edge="1" parent="ekF96qy5NfuyMTF11US6-1" source="ekF96qy5NfuyMTF11US6-79" target="ekF96qy5NfuyMTF11US6-8">
          <mxGeometry relative="1" as="geometry" />
        </mxCell>
        <mxCell id="ekF96qy5NfuyMTF11US6-89" style="edgeStyle=orthogonalEdgeStyle;rounded=1;orthogonalLoop=1;jettySize=auto;html=1;exitX=1;exitY=0.5;exitDx=0;exitDy=0;entryX=1;entryY=0.5;entryDx=0;entryDy=0;" edge="1" parent="ekF96qy5NfuyMTF11US6-1" source="ekF96qy5NfuyMTF11US6-62" target="ekF96qy5NfuyMTF11US6-13">
          <mxGeometry relative="1" as="geometry">
            <Array as="points">
              <mxPoint x="350" y="660" />
              <mxPoint x="350" y="910" />
            </Array>
          </mxGeometry>
        </mxCell>
        <mxCell id="ekF96qy5NfuyMTF11US6-90" value="No" style="edgeLabel;html=1;align=center;verticalAlign=middle;resizable=0;points=[];rounded=1;" vertex="1" connectable="0" parent="ekF96qy5NfuyMTF11US6-89">
          <mxGeometry x="0.0021" y="-2" relative="1" as="geometry">
            <mxPoint as="offset" />
          </mxGeometry>
        </mxCell>
        <mxCell id="ekF96qy5NfuyMTF11US6-96" style="edgeStyle=orthogonalEdgeStyle;rounded=1;orthogonalLoop=1;jettySize=auto;html=1;exitX=0.5;exitY=1;exitDx=0;exitDy=0;entryX=1;entryY=0.5;entryDx=0;entryDy=0;" edge="1" parent="ekF96qy5NfuyMTF11US6-1" source="ekF96qy5NfuyMTF11US6-93" target="ekF96qy5NfuyMTF11US6-95">
          <mxGeometry relative="1" as="geometry" />
        </mxCell>
        <mxCell id="ekF96qy5NfuyMTF11US6-24" style="edgeStyle=orthogonalEdgeStyle;rounded=1;orthogonalLoop=1;jettySize=auto;html=1;exitX=0.5;exitY=1;exitDx=0;exitDy=0;entryX=1;entryY=0.5;entryDx=0;entryDy=0;" edge="1" parent="ekF96qy5NfuyMTF11US6-1" source="ekF96qy5NfuyMTF11US6-19" target="ekF96qy5NfuyMTF11US6-23">
          <mxGeometry relative="1" as="geometry" />
        </mxCell>
        <mxCell id="ekF96qy5NfuyMTF11US6-107" style="edgeStyle=orthogonalEdgeStyle;rounded=1;orthogonalLoop=1;jettySize=auto;html=1;exitX=0;exitY=0.5;exitDx=0;exitDy=0;" edge="1" parent="ekF96qy5NfuyMTF11US6-1" source="ekF96qy5NfuyMTF11US6-23" target="ekF96qy5NfuyMTF11US6-28">
          <mxGeometry relative="1" as="geometry" />
        </mxCell>
        <mxCell id="ekF96qy5NfuyMTF11US6-31" style="edgeStyle=orthogonalEdgeStyle;rounded=1;orthogonalLoop=1;jettySize=auto;html=1;exitX=0.5;exitY=1;exitDx=0;exitDy=0;entryX=0;entryY=0.5;entryDx=0;entryDy=0;" edge="1" parent="ekF96qy5NfuyMTF11US6-1" source="ekF96qy5NfuyMTF11US6-28" target="ekF96qy5NfuyMTF11US6-30">
          <mxGeometry relative="1" as="geometry" />
        </mxCell>
        <mxCell id="ekF96qy5NfuyMTF11US6-94" style="edgeStyle=orthogonalEdgeStyle;rounded=1;orthogonalLoop=1;jettySize=auto;html=1;exitX=1;exitY=0.5;exitDx=0;exitDy=0;" edge="1" parent="ekF96qy5NfuyMTF11US6-1" source="ekF96qy5NfuyMTF11US6-30" target="ekF96qy5NfuyMTF11US6-93">
          <mxGeometry relative="1" as="geometry" />
        </mxCell>
        <mxCell id="ekF96qy5NfuyMTF11US6-18" style="edgeStyle=orthogonalEdgeStyle;rounded=1;orthogonalLoop=1;jettySize=auto;html=1;exitX=1;exitY=0.5;exitDx=0;exitDy=0;" edge="1" parent="1" source="ekF96qy5NfuyMTF11US6-15" target="ekF96qy5NfuyMTF11US6-17">
          <mxGeometry relative="1" as="geometry" />
        </mxCell>
        <mxCell id="ekF96qy5NfuyMTF11US6-17" value="Gemini APIに詳細情報を取得するためのクエリを送信" style="whiteSpace=wrap;html=1;rounded=1;" vertex="1" parent="1">
          <mxGeometry x="310" y="1160" width="120" height="60" as="geometry" />
        </mxCell>
        <mxCell id="ekF96qy5NfuyMTF11US6-21" style="edgeStyle=orthogonalEdgeStyle;rounded=1;orthogonalLoop=1;jettySize=auto;html=1;exitX=1;exitY=0.5;exitDx=0;exitDy=0;" edge="1" parent="1" source="ekF96qy5NfuyMTF11US6-17" target="ekF96qy5NfuyMTF11US6-19">
          <mxGeometry relative="1" as="geometry" />
        </mxCell>
      </root>
    </mxGraphModel>
  </diagram>
</mxfile>
